<svg width="25" height="25" viewBox="0 0 25 25" fill="none" xmlns="http://www.w3.org/2000/svg">
<g id="&#240;&#159;&#166;&#134; icon &#34;Chevron Circle Left&#34;">
<path id="Vector" d="M12.5 25C5.59476 25 0 19.4052 0 12.5C0 5.59476 5.59476 0 12.5 0C19.4052 0 25 5.59476 25 12.5C25 19.4052 19.4052 25 12.5 25ZM6.75907 13.3569L13.5887 20.1865C14.0625 20.6603 14.8286 20.6603 15.2974 20.1865L16.1542 19.3296C16.628 18.8558 16.628 18.0897 16.1542 17.621L11.0333 12.5L16.1542 7.37903C16.628 6.90524 16.628 6.13911 16.1542 5.67036L15.2974 4.81351C14.8236 4.33972 14.0575 4.33972 13.5887 4.81351L6.75907 11.6431C6.28528 12.1169 6.28528 12.8831 6.75907 13.3569Z" fill="#301828"/>
</g>
</svg>
