<?xml version="1.0" encoding="utf-8"?>
<!-- Svg Vector Icons : http://www.onlinewebfonts.com/icon -->
<!DOCTYPE svg PUBLIC "-//W3C//DTD SVG 1.1//EN" "http://www.w3.org/Graphics/SVG/1.1/DTD/svg11.dtd">
<svg version="1.1" xmlns="http://www.w3.org/2000/svg" xmlns:xlink="http://www.w3.org/1999/xlink" x="0px" y="0px" viewBox="0 0 256 256" enable-background="new 0 0 256 256" xml:space="preserve">
<metadata> Svg Vector Icons : http://www.onlinewebfonts.com/icon </metadata>
<g><g><g><path fill="#E34A27" d="M22.3,21.8c5.7,5.2,15,12.5,18.7,14.7c2,1.2,5.3,2.8,7.4,3.5c3.7,1.3,3.9,1.3,34.8,1.5l31.1,0.2v9v9.1H128h13.6v-9.1v-9l30-0.2c29.6-0.2,30-0.2,33.6-1.5c5.2-1.8,12-5.5,17-9c4-2.9,14.3-11.4,14.3-11.8c0-0.1-48.9-0.2-108.6-0.2L19.2,19L22.3,21.8z"/><path fill="#E34A27" d="M107.3,69.6c-29.6,3.1-56.7,22-69,48.3c-1.9,4.1-26.1,74-27.8,80.5c-1.5,5.5,1.1,11.1,6.4,14l3,1.6H128h108.2l3-1.6c4.7-2.6,7.6-8.1,6.7-12.7c-0.2-1.1-6.1-18.9-13.1-39.5c-13.9-40.6-16-45.9-22.8-55.3c-4.7-6.6-14.8-16.5-21.2-20.7c-12.6-8.3-26-13.1-41-14.7C141.5,68.9,113.8,68.9,107.3,69.6z M136.3,92.3c24.3,4.3,41.7,24.9,41.7,49.4c0,22.2-14.4,41.4-36.1,48c-4.7,1.4-5.9,1.6-13.9,1.6s-9.3-0.2-13.9-1.6c-18.9-5.8-32.4-21.2-35.6-40.3c-0.9-5.3-0.4-15.1,0.9-20.2c3.5-13.5,13.4-25.8,25.8-32.1C114.5,92.3,126.5,90.5,136.3,92.3z"/><path fill="#E34A27" d="M138.6,124.5c-7.7,7.8-8.5,8.4-10.2,8.2c-3-0.3-6.7,2-8.2,5c-0.7,1.4-1.3,3.2-1.3,4c0,0.8,0.6,2.6,1.3,4c1.4,2.7,5,5.1,7.8,5.1c2.4,0,6.4-2.4,7.6-4.5c0.6-1.1,1.2-3.2,1.3-4.8l0.2-2.8l8.2-8.2l8.3-8.3l-3-3c-1.6-1.6-3.1-3-3.2-3C147.1,116.1,143.2,119.9,138.6,124.5z"/><path fill="#E34A27" d="M41.7,230.2v6.8H128h86.3v-6.8v-6.8H128H41.7V230.2z"/></g></g></g>
</svg>