<svg width="25" height="25" viewBox="0 0 25 25" fill="none" xmlns="http://www.w3.org/2000/svg">
<circle cx="12.5" cy="12.5" r="12.5" fill="#356A15"/>
<path d="M8.83852 4.00427C8.83852 4.00427 13.1415 3.73978 12.7415 7.3718C12.7415 7.3718 13.3576 4.95583 16.0639 6.0622C16.0639 6.0622 15.4929 8.44914 13.2253 7.86854C13.2253 7.86854 13.6963 6.10736 15.3575 6.04285C15.3575 6.04285 14.0704 5.71061 12.7092 7.61694C12.7092 7.61694 12.0706 4.56875 9.69008 4.40102C9.69008 4.40102 12.1157 5.02679 12.1931 7.86854C12.1931 7.87176 8.76111 8.09433 8.83852 4.00427ZM18.9024 14.1843C18.9024 15.7487 18.5895 17.2582 17.8702 18.4517C16.509 19.4484 14.4833 20 12.4512 20C10.4223 20 8.39339 19.4484 7.03219 18.4517C6.31288 17.2582 6 15.7487 6 14.1843C6 12.6231 6.57093 11.1296 7.29024 9.93614C8.65144 8.93944 10.4223 8.3685 12.4512 8.3685C14.4833 8.3685 16.2509 8.93621 17.6121 9.93614C18.3314 11.1296 18.9024 12.6231 18.9024 14.1843ZM9.87071 17.5485C9.87071 17.0486 9.46751 16.6454 8.96755 16.6454C8.46758 16.6454 8.06438 17.0486 8.06438 17.5485C8.06438 18.0485 8.46758 18.4517 8.96755 18.4517C9.46751 18.4517 9.87071 18.0485 9.87071 17.5485ZM9.87071 15.4132C9.87071 14.9132 9.46751 14.51 8.96755 14.51C8.46758 14.51 8.06438 14.9132 8.06438 15.4132C8.06438 15.9132 8.46758 16.3164 8.96755 16.3164C9.46751 16.3164 9.87071 15.9132 9.87071 15.4132ZM9.87071 13.2779C9.87071 12.7779 9.46751 12.3747 8.96755 12.3747C8.46758 12.3747 8.06438 12.7779 8.06438 13.2779C8.06438 13.7778 8.46758 14.181 8.96755 14.181C9.46751 14.181 9.87071 13.7778 9.87071 13.2779ZM12.1931 17.5485C12.1931 17.0486 11.7899 16.6454 11.29 16.6454C10.79 16.6454 10.3868 17.0486 10.3868 17.5485C10.3868 18.0485 10.79 18.4517 11.29 18.4517C11.7899 18.4517 12.1931 18.0485 12.1931 17.5485ZM12.1931 15.4132C12.1931 14.9132 11.7899 14.51 11.29 14.51C10.79 14.51 10.3868 14.9132 10.3868 15.4132C10.3868 15.9132 10.79 16.3164 11.29 16.3164C11.7899 16.3164 12.1931 15.9132 12.1931 15.4132ZM12.1931 13.2779C12.1931 12.7779 11.7899 12.3747 11.29 12.3747C10.79 12.3747 10.3868 12.7779 10.3868 13.2779C10.3868 13.7778 10.79 14.181 11.29 14.181C11.7899 14.181 12.1931 13.7778 12.1931 13.2779ZM14.5156 17.5485C14.5156 17.0486 14.1124 16.6454 13.6124 16.6454C13.1124 16.6454 12.7092 17.0486 12.7092 17.5485C12.7092 18.0485 13.1124 18.4517 13.6124 18.4517C14.1124 18.4517 14.5156 18.0485 14.5156 17.5485ZM14.5156 15.4132C14.5156 14.9132 14.1124 14.51 13.6124 14.51C13.1124 14.51 12.7092 14.9132 12.7092 15.4132C12.7092 15.9132 13.1124 16.3164 13.6124 16.3164C14.1124 16.3164 14.5156 15.9132 14.5156 15.4132ZM14.5156 13.2779C14.5156 12.7779 14.1124 12.3747 13.6124 12.3747C13.1124 12.3747 12.7092 12.7779 12.7092 13.2779C12.7092 13.7778 13.1124 14.181 13.6124 14.181C14.1124 14.181 14.5156 13.7778 14.5156 13.2779ZM16.838 17.5485C16.838 17.0486 16.4348 16.6454 15.9348 16.6454C15.4349 16.6454 15.0317 17.0486 15.0317 17.5485C15.0317 18.0485 15.4349 18.4517 15.9348 18.4517C16.4348 18.4517 16.838 18.0485 16.838 17.5485ZM16.838 15.4132C16.838 14.9132 16.4348 14.51 15.9348 14.51C15.4349 14.51 15.0317 14.9132 15.0317 15.4132C15.0317 15.9132 15.4349 16.3164 15.9348 16.3164C16.4348 16.3164 16.838 15.9132 16.838 15.4132ZM16.838 13.2779C16.838 12.7779 16.4348 12.3747 15.9348 12.3747C15.4349 12.3747 15.0317 12.7779 15.0317 13.2779C15.0317 13.7778 15.4349 14.181 15.9348 14.181C16.4348 14.181 16.838 13.7778 16.838 13.2779ZM17.6121 12.0005C17.4573 11.2812 17.3734 10.8103 17.096 10.1942C15.8445 9.5523 14.1769 9.162 12.4512 9.162C10.7255 9.162 9.05786 9.5523 7.80633 10.1942C7.52248 10.8232 7.44507 11.2877 7.29024 12.0005C8.65144 11.7457 10.4739 11.5231 12.4512 11.5231C14.4285 11.5231 16.2509 11.7457 17.6121 12.0005Z" fill="#C4D290"/>
</svg>
